# xmcd
#
# Track frame offsets:
#	150
#	17066
#	36429
#	55152
#	73848
#	94515
#	110012
#	127858
#	145475
#	163845
#	193283
#	209115
#	227550
#	245584
#	264111
#	298357
#
# Disc length: 4723 seconds
#
# Revision: 2
# Processed by: cddbd v1.5.2PL0 Copyright (c) Steve Scherf et al.
# Submitted via: EasyCDDAExtractor 15.3.0.1
#
DISCID=fb127110
DTITLE=Luis Fonsi - Tierra Firme (Deluxe Edition)
DYEAR=2011
DGENRE=Latin
TTITLE0=Explicame
TTITLE1=Respira
TTITLE2=Dime Que No
TTITLE3=Gritar
TTITLE4=Nunca Digas Siempre
TTITLE5=Me Gustas Tu
TTITLE6=Vuelve A Mi Lado
TTITLE7=El Anillo Y La Flor
TTITLE8=Claridad
TTITLE9=Se Supone
TTITLE10=A Un Paso De Tenerte
TTITLE11=Victima
TTITLE12=Renacer
TTITLE13=Gritar (Featuring Banda El Recodo) (Version Regional Mexicana) (Bonus
TTITLE13=Track)
TTITLE14=Claridad (Dance Remix) (Bonus Track)
TTITLE15=Gritar (Video), Tierra Firme (EPK)
EXTD=
EXTT0=
EXTT1=
EXTT2=
EXTT3=
EXTT4=
EXTT5=
EXTT6=
EXTT7=
EXTT8=
EXTT9=
EXTT10=
EXTT11=
EXTT12=
EXTT13=
EXTT14=
EXTT15=
PLAYORDER=
